<svg width="1024" height="1024" viewBox="0 0 1024 1024" fill="none" xmlns="http://www.w3.org/2000/svg">
  <defs>
    <linearGradient id="bg" x1="160" y1="96" x2="864" y2="928" gradientUnits="userSpaceOnUse">
      <stop offset="0" stop-color="#173447"/>
      <stop offset="0.52" stop-color="#102231"/>
      <stop offset="1" stop-color="#0B1722"/>
    </linearGradient>
    <radialGradient id="glow" cx="0" cy="0" r="1" gradientUnits="userSpaceOnUse" gradientTransform="translate(330 252) rotate(38.4) scale(624 608)">
      <stop offset="0" stop-color="#1A9A91" stop-opacity="0.26"/>
      <stop offset="0.58" stop-color="#1A9A91" stop-opacity="0.06"/>
      <stop offset="1" stop-color="#1A9A91" stop-opacity="0"/>
    </radialGradient>
    <linearGradient id="ring" x1="255" y1="236" x2="672" y2="648" gradientUnits="userSpaceOnUse">
      <stop offset="0" stop-color="#F7F4EC"/>
      <stop offset="0.45" stop-color="#D7EFEA"/>
      <stop offset="1" stop-color="#0F766E"/>
    </linearGradient>
    <linearGradient id="handle" x1="560" y1="547" x2="748" y2="741" gradientUnits="userSpaceOnUse">
      <stop offset="0" stop-color="#F1D192"/>
      <stop offset="1" stop-color="#B7791F"/>
    </linearGradient>
    <filter id="shadow" x="124" y="128" width="776" height="776" filterUnits="userSpaceOnUse" color-interpolation-filters="sRGB">
      <feFlood flood-opacity="0" result="BackgroundImageFix"/>
      <feColorMatrix in="SourceAlpha" type="matrix" values="0 0 0 0 0 0 0 0 0 0 0 0 0 0 0 0 0 0 127 0" result="hardAlpha"/>
      <feOffset dy="24"/>
      <feGaussianBlur stdDeviation="36"/>
      <feColorMatrix type="matrix" values="0 0 0 0 0.0104167 0 0 0 0 0.0625 0 0 0 0 0.114583 0 0 0 0.34 0"/>
      <feBlend mode="normal" in2="BackgroundImageFix" result="effect1_dropShadow_1_1"/>
      <feBlend mode="normal" in="SourceGraphic" in2="effect1_dropShadow_1_1" result="shape"/>
    </filter>
  </defs>

  <rect width="1024" height="1024" rx="228" fill="url(#bg)"/>
  <rect width="1024" height="1024" rx="228" fill="url(#glow)"/>

  <circle cx="438" cy="430" r="284" stroke="#F7F4EC" stroke-opacity="0.08" stroke-width="2"/>
  <circle cx="438" cy="430" r="240" stroke="#F7F4EC" stroke-opacity="0.08" stroke-width="2"/>
  <circle cx="438" cy="430" r="196" stroke="#F7F4EC" stroke-opacity="0.08" stroke-width="2"/>

  <g filter="url(#shadow)">
    <circle cx="438" cy="430" r="208" stroke="url(#ring)" stroke-width="30"/>
    <circle cx="438" cy="430" r="136" fill="#102231" fill-opacity="0.78" stroke="#F7F4EC" stroke-opacity="0.08" stroke-width="2"/>

    <path d="M438 248L492 378L438 338L384 378L438 248Z" fill="#0F766E"/>
    <path d="M620 430L490 484L530 430L490 376L620 430Z" fill="#B7791F"/>
    <path d="M438 612L384 482L438 522L492 482L438 612Z" fill="#D7EFEA"/>
    <path d="M256 430L386 376L346 430L386 484L256 430Z" fill="#F7F4EC"/>
    <circle cx="438" cy="430" r="24" fill="#F7F4EC"/>

    <circle cx="438" cy="430" r="94" stroke="#F7F4EC" stroke-opacity="0.12" stroke-width="2"/>

    <path d="M585 577L734 726" stroke="#081017" stroke-opacity="0.32" stroke-width="38" stroke-linecap="round"/>
    <path d="M572 564L721 713" stroke="url(#handle)" stroke-width="34" stroke-linecap="round"/>
    <circle cx="300" cy="290" r="12" fill="#F1D192"/>
  </g>
</svg>
